<svg xmlns="http://www.w3.org/2000/svg" xmlns:xlink="http://www.w3.org/1999/xlink" viewBox="0 0 2844.04 253.74"><defs><style>.cls-1{fill:url(#linear-gradient);}.cls-2{fill:url(#linear-gradient-2);}.cls-3{fill:url(#linear-gradient-3);}.cls-4{fill:url(#linear-gradient-4);}.cls-5{fill:url(#linear-gradient-5);}.cls-6{fill:url(#linear-gradient-6);}.cls-7{fill:url(#linear-gradient-7);}.cls-8{fill:url(#linear-gradient-8);}.cls-9{fill:url(#linear-gradient-9);}.cls-10{fill:url(#linear-gradient-10);}.cls-11{fill:url(#linear-gradient-11);}.cls-12{fill:url(#linear-gradient-12);}.cls-13{fill:url(#linear-gradient-13);}.cls-14{fill:url(#linear-gradient-14);}.cls-15{fill:url(#linear-gradient-15);}.cls-16{fill:url(#linear-gradient-16);}.cls-17{fill:url(#linear-gradient-17);}.cls-18{fill:url(#linear-gradient-18);}.cls-19{fill:url(#linear-gradient-19);}.cls-20{fill:url(#linear-gradient-20);}.cls-21{fill:url(#linear-gradient-21);}.cls-22{fill:url(#linear-gradient-22);}.cls-23{fill:url(#linear-gradient-23);}.cls-24{fill:url(#linear-gradient-24);}.cls-25{fill:url(#linear-gradient-25);}.cls-26{fill:url(#linear-gradient-26);}.cls-27{fill:url(#linear-gradient-27);}.cls-28{fill:#01003f;}.cls-29{fill:url(#linear-gradient-28);}.cls-30{fill:url(#linear-gradient-29);}.cls-31{fill:url(#linear-gradient-30);}.cls-32{fill:url(#linear-gradient-31);}.cls-33{fill:url(#linear-gradient-32);}.cls-34{fill:url(#linear-gradient-33);}.cls-35{fill:url(#linear-gradient-34);}</style><linearGradient id="linear-gradient" x1="137.66" y1="-9.03" x2="137.66" y2="255.72" gradientUnits="userSpaceOnUse"><stop offset="0" stop-color="#15c8fc"/><stop offset="1" stop-color="#0077fa"/></linearGradient><linearGradient id="linear-gradient-2" x1="130.68" y1="-9.03" x2="130.68" y2="255.72" xlink:href="#linear-gradient"/><linearGradient id="linear-gradient-3" x1="144.64" y1="-9.03" x2="144.64" y2="255.72" xlink:href="#linear-gradient"/><linearGradient id="linear-gradient-4" x1="223.92" y1="-9.02" x2="223.92" y2="255.72" xlink:href="#linear-gradient"/><linearGradient id="linear-gradient-5" x1="250.71" y1="-9.03" x2="250.71" y2="255.72" xlink:href="#linear-gradient"/><linearGradient id="linear-gradient-6" x1="223.92" y1="-9.02" x2="223.92" y2="255.72" xlink:href="#linear-gradient"/><linearGradient id="linear-gradient-7" x1="250.71" y1="-9.02" x2="250.71" y2="255.72" xlink:href="#linear-gradient"/><linearGradient id="linear-gradient-8" x1="231.1" y1="-9.02" x2="231.1" y2="255.72" xlink:href="#linear-gradient"/><linearGradient id="linear-gradient-9" x1="265.08" y1="-9.03" x2="265.08" y2="255.72" xlink:href="#linear-gradient"/><linearGradient id="linear-gradient-10" x1="51.4" y1="-9.02" x2="51.4" y2="255.72" xlink:href="#linear-gradient"/><linearGradient id="linear-gradient-11" x1="24.61" y1="-9.03" x2="24.61" y2="255.72" xlink:href="#linear-gradient"/><linearGradient id="linear-gradient-12" x1="51.41" y1="-9.02" x2="51.41" y2="255.72" xlink:href="#linear-gradient"/><linearGradient id="linear-gradient-13" x1="24.61" y1="-9.02" x2="24.61" y2="255.72" xlink:href="#linear-gradient"/><linearGradient id="linear-gradient-14" x1="44.22" y1="-9.02" x2="44.22" y2="255.72" xlink:href="#linear-gradient"/><linearGradient id="linear-gradient-15" x1="10.24" y1="-9.03" x2="10.24" y2="255.72" xlink:href="#linear-gradient"/><linearGradient id="linear-gradient-16" x1="82.6" y1="-9.03" x2="82.6" y2="255.72" xlink:href="#linear-gradient"/><linearGradient id="linear-gradient-17" x1="51.68" y1="-9.03" x2="51.68" y2="255.72" xlink:href="#linear-gradient"/><linearGradient id="linear-gradient-18" x1="82.62" y1="-9.02" x2="82.62" y2="255.72" xlink:href="#linear-gradient"/><linearGradient id="linear-gradient-19" x1="51.68" y1="-9.03" x2="51.68" y2="255.72" xlink:href="#linear-gradient"/><linearGradient id="linear-gradient-20" x1="192.72" y1="-9.03" x2="192.72" y2="255.72" xlink:href="#linear-gradient"/><linearGradient id="linear-gradient-21" x1="223.64" y1="-9.03" x2="223.64" y2="255.72" xlink:href="#linear-gradient"/><linearGradient id="linear-gradient-22" x1="192.72" y1="-9.02" x2="192.72" y2="255.72" xlink:href="#linear-gradient"/><linearGradient id="linear-gradient-23" x1="223.64" y1="-9.03" x2="223.64" y2="255.72" xlink:href="#linear-gradient"/><linearGradient id="linear-gradient-24" x1="137.66" y1="-9.03" x2="137.66" y2="255.72" xlink:href="#linear-gradient"/><linearGradient id="linear-gradient-25" x1="137.66" y1="-9.02" x2="137.66" y2="255.72" xlink:href="#linear-gradient"/><linearGradient id="linear-gradient-26" x1="137.66" y1="-9.03" x2="137.66" y2="255.72" xlink:href="#linear-gradient"/><linearGradient id="linear-gradient-27" x1="137.66" y1="-9.03" x2="137.66" y2="255.72" xlink:href="#linear-gradient"/><linearGradient id="linear-gradient-28" x1="1538.79" y1="151.42" x2="3340.82" y2="151.42" gradientUnits="userSpaceOnUse"><stop offset="0" stop-color="#0077fa"/><stop offset="1" stop-color="#15c8fc"/></linearGradient><linearGradient id="linear-gradient-29" x1="1538.79" y1="151.42" x2="3340.81" y2="151.42" xlink:href="#linear-gradient-28"/><linearGradient id="linear-gradient-30" x1="1538.78" y1="151.42" x2="3340.81" y2="151.42" xlink:href="#linear-gradient-28"/><linearGradient id="linear-gradient-31" x1="1538.82" y1="151.42" x2="3340.79" y2="151.42" xlink:href="#linear-gradient-28"/><linearGradient id="linear-gradient-32" x1="1538.78" y1="151.42" x2="3340.82" y2="151.42" xlink:href="#linear-gradient-28"/><linearGradient id="linear-gradient-33" x1="1538.79" y1="151.42" x2="3340.81" y2="151.42" xlink:href="#linear-gradient-28"/><linearGradient id="linear-gradient-34" x1="1983.5" y1="60.45" x2="6346.44" y2="60.45" gradientUnits="userSpaceOnUse"><stop offset="0" stop-color="#0077fa"/><stop offset="0.13" stop-color="#14c5fc"/><stop offset="1" stop-color="#15c8fc"/></linearGradient></defs><g id="Layer_2" data-name="Layer 2"><g id="Layer_1-2" data-name="Layer 1"><polygon class="cls-1" points="203.22 192.43 203.22 189.15 75.38 189.15 75.38 64.59 199.94 64.59 199.94 192.43 203.22 192.43 203.22 189.15 203.22 192.43 206.5 192.43 206.5 58.03 68.82 58.03 68.82 195.72 206.5 195.72 206.5 192.43 203.22 192.43"/><polygon class="cls-2" points="104.01 146.62 84.31 166.32 84.31 73.54 177.06 73.54 157.36 93.24 104.01 93.24 104.01 146.62"/><polygon class="cls-3" points="191.01 87.43 191.01 180.21 98.26 180.21 117.96 160.51 171.31 160.51 171.31 107.13 191.01 87.43"/><path class="cls-4" d="M243.77,90.35a6.49,6.49,0,0,0,.85,3.28h-41.4V87.07h41.4A6.49,6.49,0,0,0,243.77,90.35Z"/><path class="cls-5" d="M257.67,90.33h-3.28a3.68,3.68,0,1,1-3.68-3.67,3.7,3.7,0,0,1,3.68,3.67H261a10.24,10.24,0,1,0-10.24,10.24A10.25,10.25,0,0,0,261,90.33Z"/><path class="cls-6" d="M243.77,163.4a6.57,6.57,0,0,0,.85,3.28h-41.4v-6.57h41.4A6.64,6.64,0,0,0,243.77,163.4Z"/><path class="cls-7" d="M257.67,163.41H261a10.24,10.24,0,1,0-10.24,10.24A10.23,10.23,0,0,0,261,163.41h-6.56a3.68,3.68,0,1,1-3.68-3.68,3.69,3.69,0,0,1,3.68,3.68Z"/><path class="cls-8" d="M258.12,126.86a6.57,6.57,0,0,0,.85,3.28H203.22v-6.57H259A6.64,6.64,0,0,0,258.12,126.86Z"/><path class="cls-9" d="M272,126.87h-3.28a3.68,3.68,0,1,1-3.68-3.67,3.68,3.68,0,0,1,3.68,3.67h6.56a10.24,10.24,0,1,0-10.24,10.24,10.23,10.23,0,0,0,10.24-10.24Z"/><path class="cls-10" d="M72.1,87.07v6.56H30.7a6.49,6.49,0,0,0,.85-3.28,6.79,6.79,0,0,0-.82-3.28Z"/><path class="cls-11" d="M17.65,90.33H14.37A10.24,10.24,0,1,0,24.61,80.09,10.23,10.23,0,0,0,14.37,90.33h6.57A3.67,3.67,0,1,1,24.61,94a3.67,3.67,0,0,1-3.67-3.68Z"/><path class="cls-12" d="M72.1,160.11v6.57H30.73a7,7,0,0,0,0-6.57Z"/><path class="cls-13" d="M17.65,163.41h3.29a3.67,3.67,0,1,1,3.67,3.67,3.68,3.68,0,0,1-3.67-3.67H14.37a10.24,10.24,0,1,0,10.24-10.24,10.24,10.24,0,0,0-10.24,10.24Z"/><path class="cls-14" d="M72.1,123.57v6.57H16.35a6.7,6.7,0,0,0,0-6.57Z"/><path class="cls-15" d="M3.28,126.87H0a10.24,10.24,0,1,0,10.24-10.24A10.23,10.23,0,0,0,0,126.87H6.57a3.67,3.67,0,1,1,3.67,3.67,3.67,3.67,0,0,1-3.67-3.67Z"/><path class="cls-16" d="M107.42,27.05V61.29h-6.56V33.62H57.78a6.7,6.7,0,0,0,0-6.57Z"/><path class="cls-17" d="M44.73,30.33H41.44A10.24,10.24,0,1,0,51.68,20.09,10.25,10.25,0,0,0,41.44,30.33H48A3.68,3.68,0,1,1,51.68,34,3.69,3.69,0,0,1,48,30.33Z"/><path class="cls-18" d="M107.42,192.42v34.27H57.82a7,7,0,0,0,0-6.56h43V192.42Z"/><path class="cls-19" d="M44.73,223.41H48a3.68,3.68,0,1,1,3.67,3.68A3.67,3.67,0,0,1,48,223.41H41.44a10.24,10.24,0,1,0,10.24-10.24,10.25,10.25,0,0,0-10.24,10.24Z"/><path class="cls-20" d="M216.68,30.34a6.61,6.61,0,0,0,.86,3.28H174.46V61.29H167.9V27.05h49.64A6.62,6.62,0,0,0,216.68,30.34Z"/><path class="cls-21" d="M230.6,30.33h-3.29a3.68,3.68,0,1,1-3.67-3.68,3.67,3.67,0,0,1,3.67,3.68h6.57a10.24,10.24,0,1,0-10.24,10.24,10.23,10.23,0,0,0,10.24-10.24Z"/><path class="cls-22" d="M216.68,223.41a6.58,6.58,0,0,0,.86,3.28H167.9V192.42h6.56v27.71h43.08A6.58,6.58,0,0,0,216.68,223.41Z"/><path class="cls-23" d="M230.6,223.41h3.28a10.24,10.24,0,1,0-10.24,10.24,10.24,10.24,0,0,0,10.24-10.24h-6.57a3.68,3.68,0,1,1-3.67-3.67,3.69,3.69,0,0,1,3.67,3.67Z"/><path class="cls-24" d="M140.94,16.35V61.29h-6.56V16.35a6.75,6.75,0,0,0,6.56,0Z"/><path class="cls-25" d="M144.62,10.24h-3.28a3.68,3.68,0,1,1-3.68-3.67,3.68,3.68,0,0,1,3.68,3.67h6.56a10.24,10.24,0,1,0-10.24,10.24A10.23,10.23,0,0,0,147.9,10.24Z"/><path class="cls-26" d="M140.94,192.42v45a6.68,6.68,0,0,0-6.56,0v-45Z"/><path class="cls-27" d="M144.62,243.5h3.28a10.24,10.24,0,1,0-10.24,10.24A10.23,10.23,0,0,0,147.9,243.5h-6.56a3.68,3.68,0,1,1-3.68-3.67,3.68,3.68,0,0,1,3.68,3.67Z"/><polygon class="cls-28" points="431.07 179.35 353.04 50.72 320.45 50.72 320.45 52.3 320.45 203.02 344.08 203.02 344.08 81.53 417.79 203.02 444.35 203.02 518.06 81.53 518.06 203.02 541.7 203.02 541.7 50.72 509.11 50.72 431.07 179.35"/><polygon class="cls-28" points="603.17 50.72 603.17 203.02 626.8 203.02 626.8 50.72 625.22 50.72 603.17 50.72"/><path class="cls-28" d="M744.39,74.35h82.69a32.67,32.67,0,0,1,32.16,27.55l.21,1.33h23.72L883,101.5a56.39,56.39,0,0,0-55.93-50.78H744.39a56.35,56.35,0,0,0-56.18,56.19v39.93A56.34,56.34,0,0,0,744.39,203h82.68A56.4,56.4,0,0,0,883,152.24l.17-1.73H859.45l-.21,1.33a32.67,32.67,0,0,1-32.16,27.55H744.39a32.69,32.69,0,0,1-32.55-32.55V106.91A32.69,32.69,0,0,1,744.39,74.35Z"/><path class="cls-28" d="M1095.28,145.17a47.92,47.92,0,0,0-11.45-94.45H944.58V74.35h139.25a24.41,24.41,0,0,1,24.29,24.3v.19a24.44,24.44,0,0,1-24.29,24.1H944.58V203h23.63V146.57h97.46l39,56.45H1135L1095,145.23Z"/><path class="cls-28" d="M1346.84,50.72h-95.69A56.37,56.37,0,0,0,1195,106.91v39.93A56.36,56.36,0,0,0,1251.15,203h95.69A56.37,56.37,0,0,0,1403,146.84V106.91A56.37,56.37,0,0,0,1346.84,50.72Zm-128.23,56.19a32.69,32.69,0,0,1,32.54-32.56h95.69a32.7,32.7,0,0,1,32.55,32.56v39.93a32.69,32.69,0,0,1-32.55,32.55h-95.69a32.69,32.69,0,0,1-32.54-32.55Z"/><path class="cls-28" d="M1632.67,123.72l-.52-.38c-.88-.63-1.8-1.17-2.71-1.74l1.28-1.67,0,0,1-1.48a43.66,43.66,0,0,0,7-23.71,44.12,44.12,0,0,0-44-44H1464.53V74.35h130.19a20.36,20.36,0,0,1,0,40.71H1464.53v23.62h142a20.36,20.36,0,0,1,0,40.71h-142V203h142a43.94,43.94,0,0,0,26.13-79.3Z"/><polygon class="cls-28" points="1712.18 50.72 1712.18 203.02 1735.81 203.02 1735.81 50.72 1734.24 50.72 1712.18 50.72"/><polygon class="cls-28" points="1797.23 50.72 1797.23 74.35 1876.43 74.35 1876.43 203.02 1900.07 203.02 1900.07 74.35 1979.28 74.35 1979.28 72.77 1979.28 50.72 1797.23 50.72"/><path class="cls-29" d="M2074.3,113.45q-10.5-5.53-24.35-5.52h-35.54v87H2050q13.83,0,24.35-5.52A40.68,40.68,0,0,0,2090.66,174a43.4,43.4,0,0,0,5.84-22.61,43.4,43.4,0,0,0-5.84-22.61A40.68,40.68,0,0,0,2074.3,113.45Zm-49.49,3.64h24.65c7.5,0,14,1.47,19.45,4.39a32,32,0,0,1,12.76,12,37.26,37.26,0,0,1,0,35.72,31.9,31.9,0,0,1-12.76,12.11c-5.48,2.91-11.95,4.38-19.45,4.38h-24.65Z"/><polygon class="cls-30" points="2199.27 155.27 2243.56 155.27 2243.56 146.89 2243.56 146.22 2199.27 146.22 2199.27 117.09 2248.95 117.09 2248.95 108.59 2248.95 107.92 2188.88 107.92 2188.88 194.91 2250.78 194.91 2250.78 186.41 2250.78 185.74 2199.27 185.74 2199.27 155.27"/><path class="cls-31" d="M2390.21,153.46a53,53,0,0,0-10.41-4.15q-5.58-1.6-11.23-2.94a96.87,96.87,0,0,1-10.26-3,18.58,18.58,0,0,1-7.33-4.61,10.66,10.66,0,0,1-2.69-7.61,13,13,0,0,1,2.27-7.52,15.46,15.46,0,0,1,7.11-5.32,32.86,32.86,0,0,1,12.47-2,43.81,43.81,0,0,1,11.74,1.69,39.77,39.77,0,0,1,11.5,5.29l.67.45,3.37-8,.21-.5-.44-.31a41.75,41.75,0,0,0-12.44-5.66,52.79,52.79,0,0,0-14.5-2q-11,0-18.14,3.3a24.3,24.3,0,0,0-10.62,8.82,22.11,22.11,0,0,0-3.47,12c0,4.66,1,8.49,3,11.45a22,22,0,0,0,7.82,7,48.23,48.23,0,0,0,10.48,4.16q5.64,1.53,11.28,2.88a82.18,82.18,0,0,1,10.19,3.1,19.14,19.14,0,0,1,7.28,4.66,10.66,10.66,0,0,1,2.69,7.62,12.32,12.32,0,0,1-2.26,7.2,15.25,15.25,0,0,1-7.17,5.21,35.47,35.47,0,0,1-12.9,2,43.23,43.23,0,0,1-15.85-2.95,35.8,35.8,0,0,1-12-7.26l-.65-.64-3.95,7.78-.22.43.33.34c3.28,3.37,7.88,6.08,13.77,8.19a54.93,54.93,0,0,0,18.52,3.15c7.4,0,13.51-1.08,18.33-3.3a24.51,24.51,0,0,0,10.74-8.81,21.65,21.65,0,0,0,3.54-11.92c0-4.58-1-8.36-3-11.27A21.81,21.81,0,0,0,2390.21,153.46Z"/><polygon class="cls-32" points="2492.8 107.92 2492.8 194.91 2493.47 194.91 2502.52 194.91 2503.18 194.91 2503.18 107.92 2493.47 107.92 2492.8 107.92"/><path class="cls-33" d="M2659.67,110.29a51.28,51.28,0,0,0-18.16-3.1,49.69,49.69,0,0,0-18.29,3.29,44,44,0,0,0-14.6,9.26,42.08,42.08,0,0,0-9.63,14,47,47,0,0,0,0,35.27,42.42,42.42,0,0,0,9.56,14,43.52,43.52,0,0,0,14.55,9.25,49.47,49.47,0,0,0,18.28,3.29,54.45,54.45,0,0,0,17.35-2.78,42,42,0,0,0,14.27-8.08l.5.07v-.46l.23-.21-.23-.32V150.75h-10v28.93a30.34,30.34,0,0,1-8.05,4.39,43,43,0,0,1-13.68,2.16,38.53,38.53,0,0,1-14.25-2.58,33.69,33.69,0,0,1-19-18.42,36.82,36.82,0,0,1,0-27.68,33.84,33.84,0,0,1,19-18.36,38.88,38.88,0,0,1,14.38-2.59,40.44,40.44,0,0,1,13.72,2.29,31.41,31.41,0,0,1,11.62,7.55l.48.48,6.09-6.23.44-.46-.43-.46A36.3,36.3,0,0,0,2659.67,110.29Z"/><polygon class="cls-34" points="2834.44 107.92 2833.78 107.92 2833.78 176.13 2779.59 107.92 2771.81 107.92 2771.14 107.92 2771.14 194.91 2771.81 194.91 2780.86 194.91 2781.53 194.91 2781.53 126.71 2835.6 194.91 2843.38 194.91 2844.04 194.91 2844.04 107.92 2834.44 107.92"/><polygon class="cls-35" points="2844.04 47.88 2014.41 47.88 2014.41 49.5 2014.41 71.41 2014.41 73.03 2844.04 73.03 2844.04 49.5 2844.04 47.88"/></g></g></svg>